# xmcd
#
# Track frame offsets:
#	150
#	12570
#	25517
#	40345
#	54692
#	65422
#	80855
#	93960
#	105725
#	120852
#	132125
#	144920
#
# Disc length: 2148 seconds
#
# Revision: 0
# Processed by: cddbd v1.5.2PL0 Copyright (c) Steve Scherf et al.
# Submitted via: EasyCDDAExtractor 16.0.6.1
#
DISCID=9808620c
DTITLE=Παπαδάτος Νίκος - Πρωΐ πρωΐ με την δροσούλα-LP 1971, Ν. Παπαδάτος
DYEAR=1993
DGENRE=Ρεμπέτικη
TTITLE0=Παπαδάτος Νίκος - Πρωΐ πρωΐ με την δροσούλα
TTITLE1=Παπαδάτος Νίκος - Ζούλα σε μιά βάρκα μπήκα
TTITLE2=Παπαδάτος Νίκος-Ζανέτ Λίτσα - Κάτσε ν' ακούσεις μιά πενιά
TTITLE3=Παπαδάτος Νίκος - Ο πρωθυπουργός
TTITLE4=Παπαδάτος Νίκος - Έμαθα πως είσαι μάγκας
TTITLE5=Παπαδάτος Νίκος - Της καναβουριάς τα φύλλα
TTITLE6=Παπαδάτος Νίκος-Ζανέτ Λίτσα - Να 'ρχόσουνα βρε μάγκα μου
TTITLE7=Παπαδάτος Νίκος - Μπαρμπα Γιάννη σαν πεθάνεις
TTITLE8=Παπαδάτος Νίκος - Η λειτανία του μάγκα
TTITLE9=Παπαδάτος Νίκος-Ζανέτ Λίτσα - Κάν' τονε Σταύρο, κάν' τονε
TTITLE10=Παπαδάτος Νίκος - Μέσα στου Μάνθου τον τεκέ
TTITLE11=Παπαδάτος Νίκος - Βαρέθηκα τον αργιλέ
EXTD=
EXTT0=
EXTT1=
EXTT2=
EXTT3=
EXTT4=
EXTT5=
EXTT6=
EXTT7=
EXTT8=
EXTT9=
EXTT10=
EXTT11=
PLAYORDER=
